<svg width="596" height="453" viewBox="0 0 596 453" fill="none" xmlns="http://www.w3.org/2000/svg">
<path d="M512.18 180.581C485.985 77.4915 395.471 3.0756 289.227 0.0908414C233.059 -1.48711 173.955 17.1561 130.923 82.3957C53.998 199.018 135.65 279.608 192.576 317.903C220.078 336.441 244.859 358.732 266.2 384.129C304.652 429.795 378.624 486.54 466.721 397.629C530.573 333.186 529.629 249.248 512.18 180.581Z" fill="#F2F2F2"/>
<path opacity="0.1" d="M394.193 278.169L448.096 224.388L394.193 170.606L410.626 154.214L480.963 224.388L410.626 294.561L394.193 278.169Z" fill="black"/>
<path opacity="0.1" d="M240.262 228.225H262.174V206.296H240.262V228.225ZM350.26 206.296H328.348V228.225H350.26V206.296ZM284.305 228.225H306.217V206.296H284.305V228.225Z" fill="black"/>
<path opacity="0.1" d="M210.572 277.621L156.614 223.84L210.517 170.058L194.083 153.666L123.802 223.84L194.138 294.013L210.572 277.621Z" fill="black"/>
<path d="M596 412.431C596 421.514 462.581 453 298 453C133.419 453 0 421.514 0 412.431C0 403.347 133.419 420.106 298 420.106C462.581 420.106 596 403.347 596 412.431Z" fill="#3F3D56"/>
<path opacity="0.1" d="M596 412.431C596 421.514 462.581 453 298 453C133.419 453 0 421.514 0 412.431C0 403.347 133.419 420.106 298 420.106C462.581 420.106 596 403.347 596 412.431Z" fill="black"/>
<path d="M298 428.878C462.581 428.878 596 421.514 596 412.431C596 403.347 462.581 395.984 298 395.984C133.419 395.984 0 403.347 0 412.431C0 421.514 133.419 428.878 298 428.878Z" fill="#3F3D56"/>
<path d="M346.587 333.299C346.587 368.395 368.587 396.793 395.774 396.793L346.587 333.299Z" fill="#3F3D56"/>
<path d="M395.774 396.793C395.774 361.304 420.324 332.585 450.664 332.585L395.774 396.793Z" fill="#107BEB"/>
<path d="M364.408 336.48C364.408 369.817 378.437 396.793 395.774 396.793L364.408 336.48Z" fill="#107BEB"/>
<path d="M395.774 396.793C395.774 351.445 424.15 314.75 459.218 314.75L395.774 396.793Z" fill="#3F3D56"/>
<path d="M385.426 397.241C385.426 397.241 392.402 397.026 394.504 395.528C396.606 394.03 405.234 392.241 405.756 394.644C406.277 397.046 416.238 406.594 408.363 406.657C400.488 406.721 390.064 405.43 387.966 404.151C385.868 402.871 385.426 397.241 385.426 397.241Z" fill="#A8A8A8"/>
<path opacity="0.2" d="M408.504 405.821C400.628 405.885 390.205 404.593 388.107 403.314C386.509 402.34 385.872 398.845 385.659 397.232C385.512 397.238 385.426 397.241 385.426 397.241C385.426 397.241 385.868 402.871 387.966 404.151C390.064 405.43 400.488 406.721 408.363 406.657C410.637 406.639 411.422 405.83 411.379 404.631C411.063 405.355 410.196 405.807 408.504 405.821Z" fill="black"/>
<path d="M474.134 209.892C474.134 209.892 457.268 197.076 455.988 201.774C454.708 206.472 468.363 217.148 468.363 217.148L474.134 209.892Z" fill="#FFB9B9"/>
<path opacity="0.1" d="M474.134 209.892C474.134 209.892 457.268 197.076 455.988 201.774C454.708 206.472 468.363 217.148 468.363 217.148L474.134 209.892Z" fill="black"/>
<path d="M529.811 169.317C529.811 169.317 509.755 205.191 509.329 210.315C508.902 215.44 508.902 215.867 507.195 215.44C505.488 215.013 482.018 212.451 479.885 213.305C477.751 214.159 473.484 208.18 473.484 208.18C473.484 208.18 465.376 216.294 467.083 218.003C468.79 219.711 473.91 220.565 474.764 222.7C475.617 224.836 476.897 226.971 480.738 226.544C484.579 226.117 510.609 233.377 514.023 232.096C517.436 230.814 518.29 228.679 519.997 228.679C521.704 228.679 525.117 226.971 525.117 226.544C525.117 226.117 537.066 203.482 537.066 203.482C537.066 203.482 551.148 172.733 529.811 169.317Z" fill="#D0CDE1"/>
<path opacity="0.1" d="M529.811 169.317C529.811 169.317 509.755 205.191 509.329 210.315C508.902 215.44 508.902 215.867 507.195 215.44C505.488 215.013 482.018 212.451 479.885 213.305C477.751 214.159 473.484 208.18 473.484 208.18C473.484 208.18 465.376 216.294 467.083 218.003C468.79 219.711 473.91 220.565 474.764 222.7C475.617 224.836 476.897 226.971 480.738 226.544C484.579 226.117 510.609 233.377 514.023 232.096C517.436 230.814 518.29 228.679 519.997 228.679C521.704 228.679 525.117 226.971 525.117 226.544C525.117 226.117 537.066 203.482 537.066 203.482C537.066 203.482 551.148 172.733 529.811 169.317Z" fill="black"/>
<path d="M500.713 145.667C500.532 147.935 500.568 150.215 500.823 152.476C501.471 157.383 503.728 162.497 501.596 167.077C500.822 168.74 499.511 170.188 498.797 171.871C497.285 175.432 498.656 179.382 498.45 183.173C498.185 188.07 495.073 192.788 490.339 195.471C498.427 195.723 506.118 191.721 511.207 186.268C516.295 180.815 519.129 174.051 521.254 167.284C522.346 164.106 523.046 160.806 523.338 157.458C523.507 155.535 523.282 153.597 522.676 151.764C521.928 149.973 520.944 148.291 519.75 146.763C518.475 144.97 517.166 143.141 515.286 141.807C512.971 140.164 508.506 138.515 505.434 138.754C501.666 139.047 500.872 143.05 500.713 145.667Z" fill="#2F2E41"/>
<path d="M513.169 159.067C513.169 159.067 517.863 175.723 514.023 180.421C510.182 185.118 537.066 178.285 537.066 178.285C537.066 178.285 523.837 165.046 530.238 156.505L513.169 159.067Z" fill="#FFB9B9"/>
<path opacity="0.1" d="M513.169 159.067C513.169 159.067 517.863 175.723 514.023 180.421C510.182 185.118 537.066 178.285 537.066 178.285C537.066 178.285 523.837 165.046 530.238 156.505L513.169 159.067Z" fill="black"/>
<path d="M394.193 267.753L448.096 213.971L394.193 160.19L410.626 143.798L480.963 213.971L410.626 284.145L394.193 267.753Z" fill="#107BEB"/>
<path d="M497.807 381.142V393.527L504.208 401.214L509.755 398.651L508.048 380.715L497.807 381.142Z" fill="#FFB9B9"/>
<path d="M500.367 392.673C500.367 392.673 498.66 386.694 495.673 390.964C492.686 395.235 489.699 404.63 487.992 405.057C486.285 405.485 474.337 418.724 486.285 418.724C498.234 418.724 502.074 413.172 502.074 413.172C502.074 413.172 514.023 408.474 514.023 407.62C514.023 406.766 512.316 390.964 511.462 390.964C510.609 390.964 510.182 393.954 508.048 393.954C505.915 393.954 500.367 392.673 500.367 392.673Z" fill="#2F2E41"/>
<path d="M526.398 383.277L525.971 394.808L536.212 399.078V382.423L526.398 383.277Z" fill="#FFB9B9"/>
<path d="M537.493 394.808C537.493 394.808 531.945 388.829 528.958 390.11C527.48 390.705 526.053 391.419 524.691 392.245C524.691 392.245 522.984 397.797 522.13 402.495C521.277 407.193 520.85 409.328 519.997 411.036C519.143 412.745 518.29 419.151 526.824 420.005C535.359 420.859 537.919 416.161 537.919 416.161L540.053 405.057C540.053 405.057 539.2 394.808 537.493 394.808Z" fill="#2F2E41"/>
<path d="M503.355 260.282C503.355 260.282 490.979 288.041 492.686 313.238C492.686 313.238 488.419 323.061 490.979 338.435C493.54 353.81 496.954 384.558 496.954 384.558C496.954 384.558 508.475 385.84 509.329 383.704C509.329 383.704 510.182 362.351 511.036 361.497C511.889 360.643 510.609 340.998 509.329 337.154C508.049 333.31 521.277 295.301 521.277 295.301L517.863 247.897L503.355 260.282Z" fill="#2F2E41"/>
<path opacity="0.1" d="M503.355 260.282C503.355 260.282 490.979 288.041 492.686 313.238C492.686 313.238 488.419 323.061 490.979 338.435C493.54 353.81 496.954 384.558 496.954 384.558C496.954 384.558 508.475 385.84 509.329 383.704C509.329 383.704 510.182 362.351 511.036 361.497C511.889 360.643 510.609 340.998 509.329 337.154C508.049 333.31 521.277 295.301 521.277 295.301L517.863 247.897L503.355 260.282Z" fill="black"/>
<path d="M499.941 258.574L508.048 276.084C508.048 276.084 511.889 315.801 514.023 320.925C514.023 320.925 514.876 335.446 518.717 340.143C522.557 344.841 525.544 386.267 525.544 386.267C525.544 386.267 536.212 389.256 537.066 386.267C537.919 383.277 540.48 362.778 540.48 362.778C540.48 362.778 541.333 345.268 536.639 333.737C531.945 322.207 542.187 280.781 542.187 280.781C542.187 280.781 552.855 260.709 537.493 244.481L499.941 258.574Z" fill="#2F2E41"/>
<path d="M522.557 164.192C532.22 164.192 540.053 156.353 540.053 146.682C540.053 137.012 532.22 129.173 522.557 129.173C512.894 129.173 505.061 137.012 505.061 146.682C505.061 156.353 512.894 164.192 522.557 164.192Z" fill="#FFB9B9"/>
<path d="M538.773 173.161C538.773 173.161 520.424 173.161 517.863 175.296C517.23 175.899 516.39 176.235 515.516 176.235C514.642 176.235 513.802 175.899 513.169 175.296C513.169 175.296 506.768 175.723 505.061 180.848C503.354 185.972 498.234 192.806 498.234 192.806C498.234 192.806 490.553 198.357 494.82 212.878C499.087 227.398 495.673 250.887 495.673 250.887C495.673 250.887 492.26 256.011 495.673 258.147C499.087 260.282 500.367 261.136 499.941 262.844C499.514 264.553 538.773 248.751 538.773 245.762C538.773 242.772 537.919 240.21 538.773 238.929C539.626 237.647 540.48 235.512 539.626 233.377C538.773 231.242 540.48 230.814 540.053 228.679C539.626 226.544 542.187 210.742 543.894 203.909C545.6 197.076 545.174 173.588 538.773 173.161Z" fill="#D0CDE1"/>
<path d="M474.134 215.017C474.134 215.017 457.268 202.201 455.988 206.899C454.708 211.596 468.363 222.273 468.363 222.273L474.134 215.017Z" fill="#FFB9B9"/>
<path d="M529.811 175.296C529.811 175.296 509.755 211.169 509.329 216.294C508.902 221.419 508.902 221.846 507.195 221.419C505.488 220.992 482.018 218.43 479.885 219.284C477.751 220.138 473.484 214.159 473.484 214.159C473.484 214.159 465.376 222.273 467.083 223.981C468.79 225.69 473.91 226.544 474.764 228.679C475.617 230.814 476.897 232.95 480.738 232.523C484.579 232.096 510.609 239.356 514.023 238.075C517.436 236.793 518.29 234.658 519.997 234.658C521.704 234.658 525.117 232.95 525.117 232.523C525.117 232.096 537.066 209.461 537.066 209.461C537.066 209.461 551.148 178.712 529.811 175.296Z" fill="#D0CDE1"/>
<path d="M513.893 157.869C513.651 156.135 512.764 154.562 512.308 152.871C511.952 151.518 511.873 150.107 512.076 148.722C512.279 147.338 512.759 146.008 513.489 144.815C515.998 140.758 520.925 138.961 524.361 135.654C524.432 137.339 525.6 138.778 526.891 139.862C528.182 140.945 529.663 141.824 530.756 143.107C531.806 144.461 532.572 146.013 533.007 147.67C533.68 149.591 533.982 151.622 533.896 153.655C533.847 154.671 533.592 155.667 533.146 156.581C532.701 157.495 532.074 158.31 531.305 158.974C530.025 159.986 528.236 160.565 527.618 162.075C527.375 162.83 527.305 163.63 527.413 164.416C527.706 169.115 527.979 173.897 526.874 178.473C525.768 183.049 523.06 187.47 518.815 189.498C522.303 189.746 525.865 189.987 529.25 189.106C532.634 188.225 535.871 186.006 537.038 182.706C537.613 181.079 537.668 179.268 538.486 177.748C540.556 173.9 546.272 173.725 549.08 170.378C550.204 169.039 550.747 167.313 551.15 165.612C553.521 155.599 551.855 144.966 548.246 135.33C547.002 132.009 545.453 128.665 542.785 126.331C540.514 124.345 537.614 123.25 534.747 122.315C530.562 120.951 526.251 119.834 521.852 119.69C519.941 119.577 518.025 119.801 516.191 120.351C514.381 121.006 512.696 121.966 511.211 123.191C504.32 128.557 499.628 137.133 500.251 145.849C500.627 151.123 502.86 156.114 505.728 160.554C506.732 162.107 509.102 165.418 511.305 164.442C513.303 163.556 514.155 159.742 513.893 157.869Z" fill="#2F2E41"/>
<path d="M240.262 217.809H262.174V195.88H240.262V217.809ZM350.26 195.88H328.348V217.809H350.26V195.88ZM284.305 217.809H306.217V195.88H284.305V217.809Z" fill="#107BEB"/>
<path d="M112.958 130.529C123.141 130.529 131.395 124.085 131.395 116.137C131.395 108.188 123.141 101.744 112.958 101.744C102.776 101.744 94.5214 108.188 94.5214 116.137C94.5214 124.085 102.776 130.529 112.958 130.529Z" fill="#2F2E41"/>
<path d="M116.093 215.223C116.093 215.223 132.686 216.33 135.636 214.115C138.586 211.901 151.123 217.068 152.229 220.02C153.335 222.972 134.53 223.341 131.58 223.341C128.63 223.341 114.618 227.77 114.618 227.77L116.093 215.223Z" fill="#A0616A"/>
<path d="M81.9239 387.127C81.9239 387.127 74.1906 406.644 78.2254 408.999C82.2601 411.355 124.624 409.672 124.624 409.672C124.624 409.672 131.685 405.298 123.616 402.269C123.616 402.269 116.891 401.933 112.52 399.241C108.149 396.549 103.106 391.502 103.106 391.502C103.106 391.502 102.77 384.099 100.08 385.781C99.2753 386.312 98.5903 387.005 98.0692 387.816C97.5481 388.628 97.2023 389.539 97.054 390.492L81.9239 387.127Z" fill="#2F2E41"/>
<path opacity="0.1" d="M81.9239 387.127C81.9239 387.127 74.1906 406.644 78.2254 408.999C82.2601 411.355 124.624 409.672 124.624 409.672C124.624 409.672 131.685 405.298 123.616 402.269C123.616 402.269 116.891 401.933 112.52 399.241C108.149 396.549 103.106 391.502 103.106 391.502C103.106 391.502 102.77 384.099 100.08 385.781C99.2753 386.312 98.5903 387.005 98.0692 387.816C97.5481 388.628 97.2023 389.539 97.054 390.492L81.9239 387.127Z" fill="black"/>
<path d="M210.572 267.205L156.614 213.423L210.517 159.642L194.083 143.25L123.802 213.423L194.138 283.597L210.572 267.205Z" fill="#107BEB"/>
<path d="M70 393.098C70 393.098 61.5189 414.502 65.9438 417.085C70.3687 419.668 116.83 417.823 116.83 417.823C116.83 417.823 124.574 413.026 115.724 409.704C115.724 409.704 108.349 409.335 103.555 406.383C98.7618 403.431 93.2307 397.895 93.2307 397.895C93.2307 397.895 92.8619 389.776 89.912 391.621C89.0294 392.203 88.2782 392.964 87.7067 393.853C87.1352 394.743 86.7559 395.743 86.5933 396.788L70 393.098Z" fill="#2F2E41"/>
<path d="M113.511 257.293L108.349 303.791C108.349 303.791 106.505 325.933 100.974 330.731C100.974 330.731 100.974 337.742 99.1305 339.956L96.5493 369.11C96.5493 369.11 100.237 379.812 99.868 381.658C99.4993 383.503 101.343 389.407 100.974 390.145C100.605 390.883 83.2747 390.145 83.2747 390.145L86.9621 330.731L98.393 248.067L113.511 257.293Z" fill="#2F2E41"/>
<path opacity="0.1" d="M113.511 257.293L108.349 303.791C108.349 303.791 106.505 325.933 100.974 330.731C100.974 330.731 100.974 337.742 99.1305 339.956L96.5493 369.11C96.5493 369.11 100.237 379.812 99.868 381.658C99.4993 383.503 101.343 389.407 100.974 390.145C100.605 390.883 83.2747 390.145 83.2747 390.145L86.9621 330.731L98.393 248.067L113.511 257.293Z" fill="black"/>
<path d="M104.293 255.816C104.293 255.816 100.237 293.827 98.393 301.946C97.2338 307.292 96.4941 312.721 96.1806 318.183C96.1806 318.183 95.8119 329.993 92.4932 333.314C91.5222 334.276 90.7593 335.428 90.2518 336.697C89.7443 337.967 89.5032 339.328 89.5433 340.695C89.5433 340.695 86.2246 377.967 88.0683 382.396C89.912 386.824 91.7557 390.514 89.912 393.467C88.0683 396.419 67.7875 396.419 67.7875 394.205C67.7875 391.99 67.7875 390.145 66.6813 389.038C65.5751 387.931 66.6813 380.919 66.6813 380.919C66.6813 380.919 62.2564 348.075 66.3126 338.48C70.3687 328.885 72.2124 302.684 72.2124 302.684C72.2124 302.684 69.2625 272.792 65.5751 267.995C61.8877 263.197 66.3126 246.222 66.3126 246.222L104.293 255.816Z" fill="#2F2E41"/>
<path d="M93.9114 137.777C94.34 138.754 95.3661 139.299 96.3002 139.814C101.714 142.799 106.246 147.126 110.711 151.404C109.596 147.626 109.834 143.577 111.382 139.955C111.915 138.719 112.614 137.391 112.233 136.101C111.952 135.152 111.145 134.467 110.363 133.862C108.541 132.452 106.637 131.152 104.66 129.968C103.28 129.142 100.441 126.941 98.8566 127.18C98.7735 129.323 98.73 131.238 97.7926 133.24C97.5702 133.715 94.0752 138.151 93.9114 137.777Z" fill="#A0616A"/>
<path d="M112.774 142.523C121.124 142.523 127.892 135.748 127.892 127.392C127.892 119.036 121.124 112.262 112.774 112.262C104.424 112.262 97.6556 119.036 97.6556 127.392C97.6556 135.748 104.424 142.523 112.774 142.523Z" fill="#A0616A"/>
<path d="M113.511 163.189C113.511 163.189 116.093 150.272 108.718 145.844C101.343 141.416 92.862 136.249 92.862 136.249C92.862 136.249 90.2808 135.88 89.1745 141.416C89.1745 141.416 68.1563 145.475 65.9439 165.403C63.7314 185.331 67.4188 214.485 67.4188 214.485C67.4188 214.485 64.1002 239.948 60.044 253.602C60.044 253.602 56.7253 256.555 71.475 252.126C86.2246 247.698 112.036 264.673 112.036 264.673C112.036 264.673 114.618 262.09 114.618 260.245C114.618 258.4 117.568 247.698 117.568 247.698C117.568 247.698 120.149 202.306 121.255 197.14C122.361 191.973 116.83 163.927 113.511 163.189Z" fill="#575A89"/>
<path d="M109.211 128.951C110.119 128.447 111.138 128.176 112.176 128.161C113.216 128.145 114.231 127.842 115.109 127.286C116.537 126.189 116.642 124.068 117.687 122.601C119.199 120.476 122.217 120.22 124.821 120.327C126.414 120.392 128.13 120.487 129.471 119.625C130.848 118.739 131.472 117.072 131.937 115.501C132.486 113.643 132.841 111.372 131.48 109.994C130.535 109.038 129.044 108.849 127.994 108.008C126.906 107.137 126.458 105.72 125.867 104.457C125.193 102.918 124.129 101.584 122.778 100.586C120.798 99.2089 118.269 98.9002 115.858 98.926C113.447 98.9518 111.026 99.269 108.633 98.9729C106.673 98.7303 104.718 98.0777 102.764 98.367C100.274 98.7356 98.2134 100.616 96.9864 102.815C95.7594 105.015 95.233 107.526 94.7224 109.993L93.3339 116.702C92.9033 118.783 92.4709 120.919 92.8033 123.018C93.4924 127.369 97.3373 130.828 97.6023 135.225C97.8548 134.011 98.4046 132.879 99.2022 131.929C99.9999 130.98 101.02 130.244 102.173 129.787C102.461 129.645 102.789 129.605 103.104 129.674C103.486 129.796 103.709 130.178 103.95 130.498C104.582 131.339 106.566 132.614 107.691 132.018C108.697 131.484 107.946 129.81 109.211 128.951Z" fill="#2F2E41"/>
<path d="M71.1063 197.878C71.1063 197.878 68.5251 214.116 79.2185 212.639C79.2185 212.639 84.7497 211.901 85.4871 212.639C86.2246 213.377 113.511 208.58 117.199 204.521C117.199 204.521 121.624 203.044 123.836 205.259C126.049 207.473 148.173 209.687 141.536 203.044C134.898 196.402 124.574 194.926 124.574 194.926L110.562 195.664C110.562 195.664 103.187 197.878 98.7618 195.664C94.3369 193.45 81.7997 194.188 81.7997 194.188L71.1063 197.878Z" fill="#A0616A"/>
<path d="M86.2247 146.582C86.2247 146.582 69.6313 148.427 69.6313 172.414V203.044C69.6313 203.044 78.8499 198.985 80.6936 199.354C82.5373 199.723 89.9121 194.557 89.9121 194.557C89.9121 194.557 98.3931 174.629 97.6557 169.093C96.9182 163.558 97.2869 147.32 86.2247 146.582Z" fill="#575A89"/>
<path d="M112.774 125.362C120.615 125.362 126.971 122.058 126.971 117.982C126.971 113.906 120.615 110.601 112.774 110.601C104.934 110.601 98.5775 113.906 98.5775 117.982C98.5775 122.058 104.934 125.362 112.774 125.362Z" fill="#2F2E41"/>
<path d="M99.4994 131.636C102.249 131.636 104.477 126.101 104.477 119.273C104.477 112.446 102.249 106.911 99.4994 106.911C96.7501 106.911 94.5214 112.446 94.5214 119.273C94.5214 126.101 96.7501 131.636 99.4994 131.636Z" fill="#2F2E41"/>
</svg>
