<?xml version="1.0" standalone="no"?>
<!DOCTYPE svg PUBLIC "-//W3C//DTD SVG 20010904//EN"
 "http://www.w3.org/TR/2001/REC-SVG-20010904/DTD/svg10.dtd">
<svg version="1.0" xmlns="http://www.w3.org/2000/svg"
 width="260.000000pt" height="260.000000pt" viewBox="0 0 260.000000 260.000000"
 preserveAspectRatio="xMidYMid meet">
<metadata>
Created by potrace 1.11, written by Peter Selinger 2001-2013
</metadata>
<g transform="translate(0.000000,260.000000) scale(0.100000,-0.100000)"
fill="#000000" stroke="none">
<path d="M0 1300 l0 -1300 1300 0 1300 0 0 1300 0 1300 -1300 0 -1300 0 0
-1300z m1345 504 l0 -112 58 6 57 5 0 -67 0 -66 -57 0 -58 0 3 -272 c1 -150 4
-279 7 -285 3 -8 23 -13 55 -13 l50 0 0 -70 0 -70 -102 0 -101 0 -38 40 c-49
51 -51 73 -47 408 l3 264 -47 -6 -48 -7 0 71 0 70 45 0 45 0 0 103 c0 57 3
107 7 111 4 4 43 5 88 4 l80 -3 0 -111z m-345 -136 l0 -123 -63 -19 c-34 -10
-71 -24 -82 -30 -11 -6 -22 -11 -25 -11 -3 -1 -18 -7 -35 -14 -16 -7 -59 -22
-95 -34 -36 -11 -67 -24 -70 -27 -3 -4 -36 -17 -74 -30 l-69 -23 64 -27 c35
-14 97 -37 137 -50 39 -13 72 -28 72 -32 0 -5 5 -6 10 -3 6 4 17 2 24 -4 7 -6
37 -19 67 -29 30 -10 73 -27 97 -38 l42 -19 0 -117 0 -117 -31 9 c-17 5 -41
16 -53 23 -11 8 -52 26 -91 42 -38 15 -86 36 -105 45 -19 10 -55 26 -80 36
-25 10 -78 33 -118 51 -40 18 -78 33 -85 33 -6 0 -25 8 -42 18 -16 10 -57 29
-90 42 -33 13 -66 28 -72 33 -9 6 -13 40 -13 106 l0 96 38 16 c20 9 54 24 75
33 21 9 44 16 52 16 7 0 20 6 27 13 7 6 40 22 73 35 33 13 88 37 122 53 34 16
65 29 70 29 4 0 40 15 78 34 39 19 90 41 115 51 25 9 61 25 80 35 19 11 38 19
43 20 4 0 7 -55 7 -122z m597 107 c12 -9 53 -27 90 -41 37 -14 79 -32 93 -39
14 -8 57 -26 95 -41 39 -14 93 -36 120 -49 149 -71 226 -105 235 -105 6 0 33
-12 61 -26 l50 -26 -3 -100 -3 -100 -35 -13 c-77 -28 -105 -40 -110 -46 -3 -3
-43 -21 -90 -38 -47 -18 -90 -37 -96 -42 -6 -5 -28 -15 -50 -23 -21 -7 -75
-30 -119 -50 -140 -65 -159 -73 -212 -95 -28 -11 -54 -21 -57 -21 -3 0 -6 52
-6 115 l0 115 47 21 c26 12 75 30 108 41 33 11 71 27 84 35 14 9 39 20 55 24
54 14 126 41 126 48 0 3 14 7 31 8 17 1 38 8 46 14 12 11 11 14 -9 25 -13 8
-32 13 -43 14 -11 0 -34 9 -52 19 -17 11 -46 24 -65 29 -59 18 -152 53 -203
77 -27 13 -67 26 -87 30 l-38 7 0 124 c0 68 3 124 8 124 4 0 17 -7 29 -15z"/>
</g>
</svg>
